<?xml version="1.0" encoding="iso-8859-1"?>
<svg version="1.1" id="Capa_1" xmlns="http://www.w3.org/2000/svg" xmlns:xlink="http://www.w3.org/1999/xlink" x="0px" y="0px"
	  viewBox="0 0 612 792" enable-background="new 0 0 612 792" xml:space="preserve">

	<path style="fill:#000000;" d="M610.988,281.167c-8.936-98.326-78.529-169.664-165.627-169.664c-58.025,0-111.154,31.226-141.053,81.271
		c-29.625-50.693-80.576-81.283-137.67-81.283c-87.085,0-156.692,71.337-165.614,169.664c-0.706,4.343-3.602,27.2,5.202,64.476
		C18.914,399.396,48.221,448.3,90.958,487.022L304.17,680.508l216.872-193.474c42.736-38.734,72.044-87.627,84.731-141.403
		C614.578,308.367,611.683,285.51,610.988,281.167z M582.857,340.24c-11.581,49.104-38.431,93.842-77.563,129.292L304.311,648.847
		L106.777,469.58c-39.206-35.522-66.041-80.248-77.635-129.352c-8.333-35.274-4.908-55.201-4.896-55.331l0.176-1.189
		c7.651-86.144,67.454-148.677,142.216-148.677c55.166,0,103.729,33.896,126.774,88.451l10.84,25.694l10.84-25.694
		c22.683-53.718,73.812-88.439,130.281-88.439c74.751,0,134.564,62.534,142.369,149.795
		C587.766,285.027,591.19,304.966,582.857,340.24z"/>
		<g>
		</g>
		<g>
		</g>
		<g>
		</g>
		<g>
		</g>
		<g>
		</g>
		<g>
		</g>
		<g>
		</g>
		<g>
		</g>
		<g>
		</g>
		<g>
		</g>
		<g>
		</g>
		<g>
		</g>
		<g>
		</g>
		<g>
		</g>
		<g>
		</g>
</svg>
